<?xml version="1.0" encoding="UTF-8"?>
<svg version="1.1" xmlns="http://www.w3.org/2000/svg" width="677" height="369">
<path d="M0 0 C2.4864978 -0.15581521 4.92191123 -0.13487075 7.41227722 -0.06195068 C8.31807022 -0.05487595 9.22386322 -0.04780121 10.15710449 -0.04051208 C13.0515943 -0.01251171 15.94415298 0.05023616 18.83805847 0.11383057 C20.79961909 0.13890619 22.76121001 0.16172064 24.7228241 0.18218994 C29.53281352 0.23733341 34.34135856 0.32364415 39.15055847 0.42633057 C37.42001487 6.75062199 35.37700317 12.55518682 32.33805847 18.36383057 C31.98912537 19.04767822 31.64019226 19.73152588 31.28068542 20.43609619 C28.79091607 25.28696172 26.18933465 30.07224485 23.47477722 34.80133057 C22.39192832 36.94786291 21.54575293 38.98407224 20.72868347 41.23492432 C19.18058063 45.48038099 17.26184228 49.46540942 15.21305847 53.48883057 C14.87854675 54.15720947 14.54403503 54.82558838 14.1993866 55.51422119 C12.54746287 58.78942256 10.83614319 62.00599406 8.99040222 65.17633057 C7.61080694 67.61332266 6.52514322 69.73432247 5.65055847 72.36383057 C4.46007201 75.7401634 2.95151263 78.87090659 1.3321991 82.0647583 C0.01784677 84.69156204 -1.24703629 87.33880192 -2.50569153 89.99273682 C-2.97104309 90.97306885 -3.43639465 91.95340088 -3.91584778 92.96343994 C-4.8730888 94.98355757 -5.82881373 97.00439429 -6.78303528 99.02593994 C-10.71670095 107.30189307 -10.71670095 107.30189307 -13.00569153 111.14117432 C-14.72272324 114.20054649 -15.9045673 117.10206627 -17.07649231 120.38677979 C-18.39854354 123.87522451 -20.09574631 127.16764529 -21.78694153 130.48883057 C-22.12145325 131.15720947 -22.45596497 131.82558838 -22.8006134 132.51422119 C-24.41424361 135.71349958 -26.0814586 138.84417448 -27.91584778 141.92242432 C-29.68834793 144.97333588 -30.89320184 148.07021074 -32.07649231 151.38677979 C-33.39854354 154.87522451 -35.09574631 158.16764529 -36.78694153 161.48883057 C-37.12145325 162.15720947 -37.45596497 162.82558838 -37.8006134 163.51422119 C-39.46248017 166.80913624 -41.18559524 170.04456001 -43.04084778 173.23492432 C-44.91596218 176.30486266 -44.91596218 176.30486266 -45.84944153 179.42633057 C-46.84944153 182.42633057 -46.84944153 182.42633057 -50.84944153 189.42633057 C-64.37944153 189.42633057 -77.90944153 189.42633057 -91.84944153 189.42633057 C-90.7245716 182.677111 -90.7245716 182.677111 -89.14241028 179.62164307 C-88.80274231 178.95519775 -88.46307434 178.28875244 -88.1131134 177.60211182 C-87.75797668 176.925354 -87.40283997 176.24859619 -87.03694153 175.55133057 C-86.69340637 174.88230713 -86.34987122 174.21328369 -85.9959259 173.52398682 C-85.29928821 172.16730778 -84.59980108 170.81208829 -83.89753723 169.45831299 C-82.52282447 166.79310584 -81.18441462 164.1105203 -79.84724426 161.42633057 C-78.84210195 159.41161908 -77.8291593 157.40099906 -76.81428528 155.39117432 C-76.47977356 154.7266626 -76.14526184 154.06215088 -75.8006134 153.37750244 C-75.12247313 152.03036829 -74.44277401 150.68401778 -73.7615509 149.33843994 C-71.62781089 145.09159569 -69.70169745 140.80294669 -67.84944153 136.42633057 C-67.26070309 135.21040546 -66.65922523 134.00043432 -66.03694153 132.80133057 C-64.25861164 129.29876447 -62.60730251 125.74901335 -60.97444153 122.17633057 C-59.07303902 118.02738495 -57.11229562 113.92830521 -55.03694153 109.86383057 C-50.65409332 101.20332251 -46.78889349 92.29470272 -42.84944153 83.42633057 C-42.18944153 83.42633057 -41.52944153 83.42633057 -40.84944153 83.42633057 C-40.66768372 82.77406494 -40.4859259 82.12179932 -40.29866028 81.44976807 C-38.88166823 76.52299573 -37.47203104 71.87333017 -34.84944153 67.42633057 C-34.18944153 67.09633057 -33.52944153 66.76633057 -32.84944153 66.42633057 C-32.49795141 64.76339834 -32.16843386 63.09580138 -31.84944153 61.42633057 C-31.04349654 59.46828061 -30.18742456 57.53024317 -29.28694153 55.61383057 C-28.60438293 54.1501001 -28.60438293 54.1501001 -27.90803528 52.65679932 C-27.38403137 51.55271729 -27.38403137 51.55271729 -26.84944153 50.42633057 C-26.18944153 50.42633057 -25.52944153 50.42633057 -24.84944153 50.42633057 C-24.73987122 49.84625244 -24.6303009 49.26617432 -24.51741028 48.66851807 C-23.53510503 43.8288678 -22.30122242 39.77266941 -19.84944153 35.42633057 C-19.18944153 35.42633057 -18.52944153 35.42633057 -17.84944153 35.42633057 C-17.63158997 34.51109619 -17.4137384 33.59586182 -17.18928528 32.65289307 C-15.59747538 27.08925846 -12.93650355 21.98869659 -10.41194153 16.80133057 C-9.92145325 15.77781494 -9.43096497 14.75429932 -8.9256134 13.69976807 C-6.25195174 8.15760299 -6.25195174 8.15760299 -4.84944153 5.42633057 C-4.49124329 4.50263672 -4.13304504 3.57894287 -3.76399231 2.6272583 C-1.84944153 0.42633057 -1.84944153 0.42633057 0 0 Z " fill="#111111" transform="translate(328.8494415283203,89.57366943359375)"/>
<path d="M0 0 C13.86 0 27.72 0 42 0 C41.20196859 3.19212566 40.38369619 5.50398824 38.96875 8.40625 C38.37126953 9.64568359 38.37126953 9.64568359 37.76171875 10.91015625 C36.92057292 12.63671875 36.07942708 14.36328125 35.23828125 16.08984375 C34.83996094 16.91613281 34.44164062 17.74242188 34.03125 18.59375 C33.66580078 19.34333984 33.30035156 20.09292969 32.92382812 20.86523438 C32.04270591 22.90131593 31.46817056 24.83563033 31 27 C30.34 27 29.68 27 29 27 C28.9071875 27.67804688 28.814375 28.35609375 28.71875 29.0546875 C27.82806368 32.70456515 26.2275107 35.81805094 24.5 39.125 C21.39076727 45.20187928 18.39876001 51.31995672 15.5 57.5 C10.79887439 67.49102417 5.87088769 77.35887467 0.86328125 87.19921875 C-2.32175859 93.48088599 -5.37051086 99.7198752 -7.87890625 106.30859375 C-11.26803232 114.44485807 -15.43921443 122.35337644 -19.8125 130 C-21.68079819 133.2757495 -23.0087235 136.5450162 -24.25390625 140.09765625 C-25.01829381 142.04664444 -25.936719 143.76094087 -27 145.5625 C-28.61260536 148.33416547 -29.88613911 151.02857086 -31.12548828 153.97290039 C-32.79433987 157.84126296 -34.62769977 161.63359602 -36.4375 165.4375 C-36.81970703 166.24509766 -37.20191406 167.05269531 -37.59570312 167.88476562 C-40.00222206 172.95520706 -42.47465683 177.98786384 -45 183 C-45.99 184.98 -46.98 186.96 -48 189 C-61.86 189 -75.72 189 -90 189 C-88.5770496 184.73114881 -87.40047996 181.72385224 -85.09765625 178.00390625 C-83.85772553 175.74026049 -82.87258437 173.39988005 -81.87231445 171.02270508 C-80.20460019 167.15564304 -78.37159197 163.36491534 -76.5625 159.5625 C-76.18029297 158.75490234 -75.79808594 157.94730469 -75.40429688 157.11523438 C-73.34476774 152.77588692 -71.24043781 148.46385658 -69.08276367 144.17260742 C-66.80161445 139.59539278 -64.59070616 134.98414277 -62.375 130.375 C-61.88515625 129.364375 -61.3953125 128.35375 -60.890625 127.3125 C-58.6318898 122.60988737 -56.45826498 118.02672516 -55 113 C-54.34 113 -53.68 113 -53 113 C-52.87625 112.26007813 -52.7525 111.52015625 -52.625 110.7578125 C-52.02816132 108.12426182 -51.25967659 106.24564136 -50 103.875 C-47.40185818 98.84439497 -44.97120308 93.74800285 -42.5625 88.625 C-39.65124604 82.44871041 -36.67829881 76.31464016 -33.59375 70.22265625 C-31.50037622 65.98973134 -29.50495944 61.71284206 -27.5 57.4375 C-24.63762993 51.33481237 -21.68526063 45.34867834 -18.2890625 39.51953125 C-17.20809196 37.4067252 -16.38072466 35.40249647 -15.57421875 33.1796875 C-14.07087501 29.05561088 -12.20044931 25.20840386 -10.1875 21.3125 C-6.57883364 14.29280215 -3.31465589 7.18175443 0 0 Z " fill="#111111" transform="translate(395,90)"/>
<path d="M0 0 C0.144375 0.61875 0.28875 1.2375 0.4375 1.875 C0.93152225 4.03258322 0.93152225 4.03258322 2 6 C0.35 6.66 -1.3 7.32 -3 8 C-3 9.32 -3 10.64 -3 12 C-3.66 12 -4.32 12 -5 12 C-3.85814266 7.52040582 -2.56984833 3.85477249 0 0 Z " fill="#969696" transform="translate(294,158)"/>
<path d="" fill="#FFFFFF" transform="translate(0,0)"/>
<path d="" fill="#FFFFFF" transform="translate(0,0)"/>
<path d="" fill="#FFFFFF" transform="translate(0,0)"/>
<path d="" fill="#FFFFFF" transform="translate(0,0)"/>
<path d="" fill="#FFFFFF" transform="translate(0,0)"/>
<path d="" fill="#FFFFFF" transform="translate(0,0)"/>
<path d="" fill="#FFFFFF" transform="translate(0,0)"/>
<path d="" fill="#FFFFFF" transform="translate(0,0)"/>
<path d="" fill="#FFFFFF" transform="translate(0,0)"/>
<path d="" fill="#FFFFFF" transform="translate(0,0)"/>
<path d="" fill="#FFFFFF" transform="translate(0,0)"/>
<path d="" fill="#FFFFFF" transform="translate(0,0)"/>
<path d="" fill="#FFFFFF" transform="translate(0,0)"/>
<path d="" fill="#FFFFFF" transform="translate(0,0)"/>
<path d="" fill="#FFFFFF" transform="translate(0,0)"/>
<path d="" fill="#FFFFFF" transform="translate(0,0)"/>
<path d="" fill="#FFFFFF" transform="translate(0,0)"/>
<path d="" fill="#FFFFFF" transform="translate(0,0)"/>
<path d="" fill="#FFFFFF" transform="translate(0,0)"/>
<path d="" fill="#FFFFFF" transform="translate(0,0)"/>
<path d="" fill="#FFFFFF" transform="translate(0,0)"/>
<path d="" fill="#FFFFFF" transform="translate(0,0)"/>
<path d="" fill="#FFFFFF" transform="translate(0,0)"/>
<path d="" fill="#FFFFFF" transform="translate(0,0)"/>
<path d="" fill="#FFFFFF" transform="translate(0,0)"/>
<path d="" fill="#FFFFFF" transform="translate(0,0)"/>
<path d="" fill="#FFFFFF" transform="translate(0,0)"/>
<path d="" fill="#FFFFFF" transform="translate(0,0)"/>
<path d="" fill="#FFFFFF" transform="translate(0,0)"/>
<path d="" fill="#FFFFFF" transform="translate(0,0)"/>
<path d="" fill="#FFFFFF" transform="translate(0,0)"/>
<path d="" fill="#FFFFFF" transform="translate(0,0)"/>
<path d="" fill="#FFFFFF" transform="translate(0,0)"/>
<path d="" fill="#FFFFFF" transform="translate(0,0)"/>
<path d="" fill="#FFFFFF" transform="translate(0,0)"/>
<path d="" fill="#FFFFFF" transform="translate(0,0)"/>
<path d="" fill="#FFFFFF" transform="translate(0,0)"/>
<path d="" fill="#FFFFFF" transform="translate(0,0)"/>
<path d="" fill="#FFFFFF" transform="translate(0,0)"/>
<path d="" fill="#FFFFFF" transform="translate(0,0)"/>
<path d="" fill="#FFFFFF" transform="translate(0,0)"/>
<path d="" fill="#FFFFFF" transform="translate(0,0)"/>
<path d="" fill="#FFFFFF" transform="translate(0,0)"/>
<path d="" fill="#FFFFFF" transform="translate(0,0)"/>
<path d="" fill="#FFFFFF" transform="translate(0,0)"/>
<path d="" fill="#FFFFFF" transform="translate(0,0)"/>
<path d="" fill="#FFFFFF" transform="translate(0,0)"/>
<path d="" fill="#FFFFFF" transform="translate(0,0)"/>
<path d="" fill="#FFFFFF" transform="translate(0,0)"/>
<path d="" fill="#FFFFFF" transform="translate(0,0)"/>
<path d="" fill="#FFFFFF" transform="translate(0,0)"/>
<path d="" fill="#FFFFFF" transform="translate(0,0)"/>
<path d="" fill="#FFFFFF" transform="translate(0,0)"/>
<path d="" fill="#FFFFFF" transform="translate(0,0)"/>
<path d="" fill="#FFFFFF" transform="translate(0,0)"/>
<path d="" fill="#FFFFFF" transform="translate(0,0)"/>
<path d="" fill="#FFFFFF" transform="translate(0,0)"/>
<path d="" fill="#FFFFFF" transform="translate(0,0)"/>
<path d="" fill="#FFFFFF" transform="translate(0,0)"/>
<path d="" fill="#FFFFFF" transform="translate(0,0)"/>
<path d="" fill="#FFFFFF" transform="translate(0,0)"/>
<path d="" fill="#FFFFFF" transform="translate(0,0)"/>
<path d="" fill="#FFFFFF" transform="translate(0,0)"/>
<path d="" fill="#FFFFFF" transform="translate(0,0)"/>
<path d="" fill="#FFFFFF" transform="translate(0,0)"/>
<path d="" fill="#FFFFFF" transform="translate(0,0)"/>
<path d="" fill="#FFFFFF" transform="translate(0,0)"/>
<path d="" fill="#FFFFFF" transform="translate(0,0)"/>
<path d="" fill="#FFFFFF" transform="translate(0,0)"/>
<path d="" fill="#FFFFFF" transform="translate(0,0)"/>
<path d="" fill="#FFFFFF" transform="translate(0,0)"/>
<path d="" fill="#FFFFFF" transform="translate(0,0)"/>
<path d="" fill="#FFFFFF" transform="translate(0,0)"/>
<path d="" fill="#FFFFFF" transform="translate(0,0)"/>
<path d="" fill="#FFFFFF" transform="translate(0,0)"/>
<path d="" fill="#FFFFFF" transform="translate(0,0)"/>
</svg>
